<svg xmlns="http://www.w3.org/2000/svg" viewBox="0 0 366.28 356.33"><defs><style>.cls-1{fill:#f2efbd;}</style></defs><title>paw_1</title><g id="Layer_2" data-name="Layer 2"><g id="Layer_1-2" data-name="Layer 1"><path class="cls-1" d="M53.91,144.46a30.68,30.68,0,0,0,31.37,39.21,30.84,30.84,0,0,0,6.81-1.2,30.43,30.43,0,0,0,11.08-6,60.32,60.32,0,0,1,46-13.75l.44.06a30.69,30.69,0,0,0,24-53.64L143.41,83A48.48,48.48,0,0,0,65.1,106.05Z"/><path class="cls-1" d="M166.66,77.61c10.17-3,18.14-13,19.15-25.46,1.26-15.64-8.93-29.26-22.71-30.37A23.52,23.52,0,0,0,144.42,29a30.4,30.4,0,0,0-8.61,19.12,30.41,30.41,0,0,0,5.42,20.27,23.53,23.53,0,0,0,17.3,10.1A22.32,22.32,0,0,0,166.66,77.61Z"/><path class="cls-1" d="M129.51,24.76C124.31,7.13,107.5-3.5,92,1.06S68.21,23.67,73.4,41.3s22,28.25,37.48,23.69S134.71,42.38,129.51,24.76Z"/><path class="cls-1" d="M69.32,46.56A32.7,32.7,0,0,0,51,33.43a24.73,24.73,0,0,0-31.72,22A32.68,32.68,0,0,0,25.2,77.23c7.92,11.39,21.33,16.36,32.61,13A23.44,23.44,0,0,0,64.69,87h0C76.86,78.51,78.93,60.38,69.32,46.56Z"/><path class="cls-1" d="M12.13,138c8,6,17.71,7.68,25.9,5.26A22.85,22.85,0,0,0,50,135.09c8.32-11,4.93-27.69-7.57-37.15s-29.47-8.16-37.81,2.87h0C-3.77,111.84-.37,128.51,12.13,138Z"/><path class="cls-1" d="M303.41,282.7a48.48,48.48,0,0,0-72.87-36.81l-34.46,20.32A30.69,30.69,0,0,0,210,323.29l.45,0a60.34,60.34,0,0,1,42.79,21.83,30.49,30.49,0,0,0,9.82,7.88,31.23,31.23,0,0,0,6.48,2.4A30.7,30.7,0,0,0,307.5,322.5Z"/><path class="cls-1" d="M216.48,238.73a23.51,23.51,0,0,0,18.84-6.81,31.28,31.28,0,0,0,4-39.33,23.53,23.53,0,0,0-17.09-10.43c-13.75-1.39-26.23,10.17-27.81,25.78-1.24,12.42,4.79,23.72,14.25,28.5A22.34,22.34,0,0,0,216.48,238.73Z"/><path class="cls-1" d="M265.77,234.07c14.4,7.27,32.85-.15,41.14-16.55s3.32-35.67-11.08-42.94-32.85.15-41.13,16.56S251.38,226.8,265.77,234.07Z"/><path class="cls-1" d="M307.24,264h0a23.72,23.72,0,0,0,6.17,4.49c10.5,5.3,24.59,2.83,34.43-6.94a32.75,32.75,0,0,0,9.75-20.34,24.73,24.73,0,0,0-27.23-27.4A32.68,32.68,0,0,0,310,223.43C298,235.29,296.81,253.5,307.24,264Z"/><path class="cls-1" d="M363.9,288.46h0c-6.22-12.34-22.68-16.67-36.68-9.63S306.88,301.65,313.08,314a22.94,22.94,0,0,0,10.26,10.15c7.62,3.85,17.51,4,26.42-.51C363.76,316.59,370.1,300.81,363.9,288.46Z"/></g></g></svg>
