<svg id="All" xmlns="http://www.w3.org/2000/svg" viewBox="0 0 1920 1080"><defs><style>.cls-1{fill:#012340;}.cls-2{fill:#efe2dd;}.cls-3{fill:#e1d3ce;}.cls-4{fill:#cdbfba;}.cls-5{fill:#b9acac;}</style></defs><title>bg-moon</title><rect class="cls-1" x="-0.02" y="-0.79" width="1941.78" height="1080.79"/><path class="cls-2" d="M1821,463.05c0,163.66-127,296.33-283.62,296.33s-283.62-132.67-283.62-296.33,127-296.34,283.62-296.34S1821,299.39,1821,463.05Z"/><path class="cls-3" d="M1821,463.05c0,163.67-127,296.34-283.62,296.34-92.42,0-174.51-46.18-226.29-117.67,51.31,53.57,122.19,86.69,200.45,86.69,156.64,0,283.62-132.68,283.62-296.34,0-67.11-21.36-129-57.36-178.71C1789.21,307,1821,381.14,1821,463.05Z"/><path class="cls-4" d="M1770.16,293.69c-14.78,28.64-43.76,48.09-77.08,48.09-48.36,0-87.55-40.95-87.55-91.47a93.12,93.12,0,0,1,27.33-66.39C1688.86,204.83,1736.73,243.61,1770.16,293.69Z"/><path class="cls-5" d="M1770.16,293.69c-14.78,28.64-43.76,48.09-77.08,48.09-36.24,0-67.32-23-80.63-55.75,16,18.82,39.4,30.68,65.42,30.68,32.31,0,60.54-18.29,75.7-45.5Q1762.38,282,1770.16,293.69Z"/><path class="cls-4" d="M1542.81,293.66c0,26.58-20.62,48.12-46,48.12s-46.06-21.54-46.06-48.12,20.62-48.12,46.06-48.12S1542.81,267.08,1542.81,293.66Z"/><path class="cls-5" d="M1542.81,293.66c0,26.58-20.61,48.12-46,48.12a44.84,44.84,0,0,1-31.3-12.78,44,44,0,0,0,15.32,2.73c25.45,0,46.06-21.54,46.06-48.12A49,49,0,0,0,1512,248.25C1530,254.84,1542.81,272.69,1542.81,293.66Z"/><path class="cls-4" d="M1750,543.86c0,15.16-11.76,27.45-26.27,27.45s-26.28-12.29-26.28-27.45,11.76-27.45,26.28-27.45S1750,528.7,1750,543.86Z"/><path class="cls-5" d="M1750,543.87c0,15.15-11.76,27.44-26.27,27.44a25.85,25.85,0,0,1-20.87-10.76,24.77,24.77,0,0,0,6,.74c14.51,0,26.27-12.3,26.27-27.46a28.27,28.27,0,0,0-5.39-16.69C1741.38,520,1750,530.88,1750,543.87Z"/><path class="cls-4" d="M1572.91,412.52c0,10.8-8.38,19.55-18.71,19.55s-18.71-8.75-18.71-19.55S1543.87,393,1554.2,393,1572.91,401.73,1572.91,412.52Z"/><path class="cls-4" d="M1544.39,583c0,21.64-16.78,39.17-37.49,39.17s-37.49-17.53-37.49-39.17,16.79-39.17,37.49-39.17S1544.39,561.4,1544.39,583Z"/><path class="cls-5" d="M1544.39,583c0,21.64-16.78,39.17-37.48,39.17a36.5,36.5,0,0,1-25.64-10.6,36.42,36.42,0,0,0,6.08.51c20.71,0,37.48-17.54,37.48-39.18A39.89,39.89,0,0,0,1513,544.39C1530.81,547.42,1544.39,563.57,1544.39,583Z"/><path class="cls-4" d="M1419.45,600.66c0,10.8-8.38,19.55-18.71,19.55S1382,611.46,1382,600.66s8.38-19.55,18.72-19.55S1419.45,589.86,1419.45,600.66Z"/><path class="cls-4" d="M1672.64,393a10.23,10.23,0,1,1-10.22-10.68A10.47,10.47,0,0,1,1672.64,393Z"/><path class="cls-4" d="M1460.92,452.37a10.23,10.23,0,1,1-10.22-10.68A10.46,10.46,0,0,1,1460.92,452.37Z"/><path class="cls-4" d="M1698.07,451.56a10.23,10.23,0,1,1-10.23-10.67A10.46,10.46,0,0,1,1698.07,451.56Z"/><path class="cls-4" d="M1402.47,341.78a10.23,10.23,0,1,1-10.22-10.67A10.45,10.45,0,0,1,1402.47,341.78Z"/></svg>
