<svg id="All" xmlns="http://www.w3.org/2000/svg" viewBox="0 0 1920 1080"><defs><style>.cls-1{fill:#012340;}.cls-2{fill:#efe2dd;}.cls-3{fill:#e1d3ce;}.cls-4{fill:#cdbfba;}.cls-5{fill:#b9acac;}.cls-6{fill:#f7c019;}.cls-7{fill:#bfbfbf;}</style></defs><title>bg-moon</title><rect class="cls-1" x="-0.02" y="-0.79" width="1920.02" height="1080.79"/><path class="cls-2" d="M1821,463.05c0,163.66-127,296.33-283.62,296.33s-283.62-132.67-283.62-296.33,127-296.34,283.62-296.34S1821,299.39,1821,463.05Z"/><path class="cls-3" d="M1821,463.05c0,163.67-127,296.34-283.62,296.34-92.42,0-174.51-46.18-226.29-117.67,51.31,53.57,122.19,86.69,200.45,86.69,156.64,0,283.62-132.68,283.62-296.34,0-67.11-21.36-129-57.36-178.71C1789.21,307,1821,381.14,1821,463.05Z"/><path class="cls-4" d="M1770.16,293.69c-14.78,28.64-43.76,48.09-77.08,48.09-48.36,0-87.55-40.95-87.55-91.47a93.12,93.12,0,0,1,27.33-66.39C1688.86,204.83,1736.73,243.61,1770.16,293.69Z"/><path class="cls-5" d="M1770.16,293.69c-14.78,28.64-43.76,48.09-77.08,48.09-36.24,0-67.32-23-80.63-55.75,16,18.82,39.4,30.68,65.42,30.68,32.31,0,60.54-18.29,75.7-45.5Q1762.38,282,1770.16,293.69Z"/><path class="cls-4" d="M1542.81,293.66c0,26.58-20.62,48.12-46,48.12s-46.06-21.54-46.06-48.12,20.62-48.12,46.06-48.12S1542.81,267.08,1542.81,293.66Z"/><path class="cls-5" d="M1542.81,293.66c0,26.58-20.61,48.12-46,48.12a44.84,44.84,0,0,1-31.3-12.78,44,44,0,0,0,15.32,2.73c25.45,0,46.06-21.54,46.06-48.12A49,49,0,0,0,1512,248.25C1530,254.84,1542.81,272.69,1542.81,293.66Z"/><path class="cls-4" d="M1750,543.86c0,15.16-11.76,27.45-26.27,27.45s-26.28-12.29-26.28-27.45,11.76-27.45,26.28-27.45S1750,528.7,1750,543.86Z"/><path class="cls-5" d="M1750,543.87c0,15.15-11.76,27.44-26.27,27.44a25.85,25.85,0,0,1-20.87-10.76,24.77,24.77,0,0,0,6,.74c14.51,0,26.27-12.3,26.27-27.46a28.27,28.27,0,0,0-5.39-16.69C1741.38,520,1750,530.88,1750,543.87Z"/><path class="cls-4" d="M1572.91,412.52c0,10.8-8.38,19.55-18.71,19.55s-18.71-8.75-18.71-19.55S1543.87,393,1554.2,393,1572.91,401.73,1572.91,412.52Z"/><path class="cls-4" d="M1544.39,583c0,21.64-16.78,39.17-37.49,39.17s-37.49-17.53-37.49-39.17,16.79-39.17,37.49-39.17S1544.39,561.4,1544.39,583Z"/><path class="cls-5" d="M1544.39,583c0,21.64-16.78,39.17-37.48,39.17a36.5,36.5,0,0,1-25.64-10.6,36.42,36.42,0,0,0,6.08.51c20.71,0,37.48-17.54,37.48-39.18A39.89,39.89,0,0,0,1513,544.39C1530.81,547.42,1544.39,563.57,1544.39,583Z"/><path class="cls-4" d="M1419.45,600.66c0,10.8-8.38,19.55-18.71,19.55S1382,611.46,1382,600.66s8.38-19.55,18.72-19.55S1419.45,589.86,1419.45,600.66Z"/><path class="cls-4" d="M1672.64,393a10.23,10.23,0,1,1-10.22-10.68A10.47,10.47,0,0,1,1672.64,393Z"/><path class="cls-4" d="M1460.92,452.37a10.23,10.23,0,1,1-10.22-10.68A10.46,10.46,0,0,1,1460.92,452.37Z"/><path class="cls-4" d="M1698.07,451.56a10.23,10.23,0,1,1-10.23-10.67A10.46,10.46,0,0,1,1698.07,451.56Z"/><path class="cls-4" d="M1402.47,341.78a10.23,10.23,0,1,1-10.22-10.67A10.45,10.45,0,0,1,1402.47,341.78Z"/><path class="cls-6" d="M454.65,413.45s-28.86-37-75.29-24.47c0,0-9.41,28.86,19.45,45.18S452.77,427.25,454.65,413.45Z"/><path class="cls-6" d="M496.15,413.45s28.86-37,75.29-24.47c0,0,9.41,28.86-19.45,45.18S498,427.25,496.15,413.45Z"/><path d="M442.1,401.53s-20.7-16.94-45.8-15.06c0,0-3.83,16.17,3.73,25S433.94,426,442.1,401.53Z"/><path class="cls-7" d="M399,410.11s3-5.44,19.91-8.58V399s-9.13-4.43-23.56-2.55C395.33,396.47,394.58,407,399,410.11Z"/><path d="M508.7,401.53s20.71-16.94,45.8-15.06c0,0,3.83,16.17-3.73,25S516.86,426,508.7,401.53Z"/><path class="cls-7" d="M551.83,410.11s-3-5.44-19.91-8.58V399s9.12-4.43,23.55-2.55C555.47,396.47,556.22,407,551.83,410.11Z"/><path class="cls-6" d="M610.3,293.53s-23.38-30-61-19.82c0,0-7.63,23.38,15.75,36.59S608.77,304.71,610.3,293.53Z"/><path class="cls-6" d="M643.92,293.53s23.37-30,61-19.82c0,0,7.63,23.38-15.75,36.59S645.44,304.71,643.92,293.53Z"/><path d="M600.13,283.87s-16.77-13.72-37.1-12.2c0,0-3.1,13.1,3,20.28S593.52,303.69,600.13,283.87Z"/><path class="cls-7" d="M565.2,290.82s2.4-4.41,16.13-6.95v-2s-7.4-3.59-19.08-2.06C562.25,279.78,561.64,288.28,565.2,290.82Z"/><path d="M654.08,283.87s16.77-13.72,37.1-12.2c0,0,3.1,13.1-3,20.28S660.69,303.69,654.08,283.87Z"/><path class="cls-7" d="M689,290.82s-2.4-4.41-16.13-6.95v-2s7.4-3.59,19.09-2.06C692,279.78,692.57,288.28,689,290.82Z"/></svg>
