<svg xmlns="http://www.w3.org/2000/svg" viewBox="0 0 1920 1080"><defs><style>.cls-1{fill:#012340;}.cls-2{fill:#efe2dd;}.cls-3{fill:#e1d3ce;}.cls-4{fill:#cdbfba;}.cls-5{fill:#b9acac;}</style></defs><title>moon-surface</title><g id="Layer_2" data-name="Layer 2"><g id="All"><rect class="cls-1" width="1920" height="1080"/><path class="cls-2" d="M1837,421c0,154.48-125.23,279.71-279.71,279.71S1277.59,575.44,1277.59,421s125.23-279.71,279.71-279.71S1837,266.48,1837,421Z"/><path class="cls-3" d="M1837,421c0,154.48-125.23,279.71-279.71,279.71a279.28,279.28,0,0,1-223.17-111.06,278.85,278.85,0,0,0,197.69,81.82c154.48,0,279.71-125.23,279.71-279.71A278.45,278.45,0,0,0,1755,223,278.82,278.82,0,0,1,1837,421Z"/><path class="cls-4" d="M1786.86,261.11a86.34,86.34,0,1,1-135.41-103.62A280.4,280.4,0,0,1,1786.86,261.11Z"/><path class="cls-5" d="M1786.86,261.11a86.37,86.37,0,0,1-155.53-7.24,86.35,86.35,0,0,0,139.17-14Q1779.19,250.08,1786.86,261.11Z"/><path class="cls-4" d="M1562.65,261.07a45.42,45.42,0,1,1-45.42-45.42A45.43,45.43,0,0,1,1562.65,261.07Z"/><path class="cls-5" d="M1562.65,261.07a45.43,45.43,0,0,1-76.24,33.38,45.42,45.42,0,0,0,45.89-76.23A45.43,45.43,0,0,1,1562.65,261.07Z"/><path class="cls-4" d="M1767,497.23a25.92,25.92,0,1,1-25.91-25.91A25.91,25.91,0,0,1,1767,497.23Z"/><path class="cls-5" d="M1767,497.24A25.91,25.91,0,0,1,1720.49,513a25.3,25.3,0,0,0,6,.69A25.93,25.93,0,0,0,1747,472,25.92,25.92,0,0,1,1767,497.24Z"/><path class="cls-4" d="M1592.33,373.27a18.46,18.46,0,1,1-18.45-18.45A18.45,18.45,0,0,1,1592.33,373.27Z"/><path class="cls-4" d="M1564.21,534.21a37,37,0,1,1-37-37A37,37,0,0,1,1564.21,534.21Z"/><path class="cls-5" d="M1564.21,534.21a37,37,0,0,1-62.26,27,37,37,0,0,0,31.3-63.44A37,37,0,0,1,1564.21,534.21Z"/><path class="cls-4" d="M1441,550.85a18.45,18.45,0,1,1-18.45-18.45A18.45,18.45,0,0,1,1441,550.85Z"/><path class="cls-4" d="M1690.68,354.82a10.08,10.08,0,1,1-10.07-10.08A10.08,10.08,0,0,1,1690.68,354.82Z"/><path class="cls-4" d="M1481.89,410.88a10.09,10.09,0,1,1-10.08-10.08A10.08,10.08,0,0,1,1481.89,410.88Z"/><path class="cls-4" d="M1715.76,410.12A10.08,10.08,0,1,1,1705.68,400,10.08,10.08,0,0,1,1715.76,410.12Z"/><path class="cls-4" d="M1424.24,306.5a10.08,10.08,0,1,1-10.08-10.08A10.09,10.09,0,0,1,1424.24,306.5Z"/></g></g></svg>
