<svg xmlns="http://www.w3.org/2000/svg" viewBox="0 0 984.29 578.14"><title>Asset 19</title><g id="Layer_2" data-name="Layer 2"><g id="All"><path d="M693.47,261.48a81,81,0,1,1,81-81,81,81,0,0,1-81,81m-260.74-162a81,81,0,1,1-81,81,81,81,0,0,1,81-81m441.21,81A180.46,180.46,0,0,0,563.09,55.71,180.46,180.46,0,0,0,273,264.44c-59.47,0-107.69,0-124.79,0h-2.47A8.09,8.09,0,0,1,138.9,252l1.66-2.34c8.95-12.34,83.85-100.44,108.74-132.31l6.82-9.93c7.54-10.67,12.63-23.36,12.63-37.41,0-36.13-24.82-63-63.47-64.78l-11.07-.66L11.47,4.36v96.58s68.86-.07,108.44-.07l2.38,0a8.11,8.11,0,0,1,8.1,8.09,8,8,0,0,1-1.33,4.37L127,116C94.44,158.48,23.14,244.31,18,250.68a141.94,141.94,0,0,0-8.23,12.37C3.85,272.92,0,283.34,0,295.69c0,36.13,33.19,60.72,62.8,64C73.13,360.79,81,360.83,81,360.83l350.81.09c.29,0,.59,0,.89,0s.55,0,.85,0l264.58.08-.13-.19A180.39,180.39,0,0,0,873.94,180.47" style="fill:#ed1e79"/><path d="M307.11,408.27c.38,3-3.86,9.09-12.69,18.51-7.83,8.47-13.81,13.93-17.67,16.36-1.95,0-1.95,2.18-1.68,4.37-2.46.31-7.15,5.05-9.61,5.36l-.88-.45c-8,.17-13.36-2.5-15.51-8.62l-4.41.27A103.4,103.4,0,0,0,233,460l-4.41.27c-1.09,2.36-2.6,3.66-4,3.83-1.92.23-5.71-1.24-6.84-1.38l-2.18,2.5a21,21,0,0,1-15.5-17.51c-.31-2.46.34-6.15,2.22-11.1,1.2-3.76,2.4-7.52,3.87-11.31,1.55-5.47,6.06-11.58,13.27-18.3a116.83,116.83,0,0,1,18.81-14l6.63-.27c3.38-4,7-6.15,10.56-6.59a9.93,9.93,0,0,1,6.87,1.65c.37,3,5.35,7.38,8.64,7,.54-.06,2.25-1.94,5.16-5.36,2.87-3.68,5.13-5.63,7-5.87,2.74-.34,4.41,1.95,5.05,7.15.48,3.82-1.34,9.32-5.47,16.22-5.79,9.33-8.73,14.69-9.14,15.85l.58,4.65a88.93,88.93,0,0,0-8.69,12.74,6.85,6.85,0,0,0,4.92,1.61c3-.38,12.34-10.14,28.55-29.37a35.16,35.16,0,0,1,7.08-5.6Zm-54-12.71c-5.2.64-10.63,3.82-16.27,9.79s-9.14,11.41-10.68,16.87l.24,1.92c.37,3-.28,6.69-1.89,11.61s-2.26,8.61-1.92,11.35c.44,3.55,2.29,5,5.29,4.61s9.1-5,17.95-14.16a205.83,205.83,0,0,0,16-18.65l-.58-4.65c2-1.36,4.58-3.34,4.28-5.8-.17-1.37-1.27-5.68-1.5-7.59C260.72,396.83,257.17,395.05,253.07,395.56Z" style="fill:#f7c019"/><path d="M351.94,404.92c-14,14.51-26.33,24.93-36.41,30.9l-4.17,4.4.81,4.34c.14,1.1-4.88,3.11-3,9.53-1.13,2.09-2.67,5.33-5.2,9.53l.85,4.62c-1.82,3.28-4.83,8.09-8.76,14.41l2.46,1.92c-.75.64-3.59,6.83-8.25,18.51a22.2,22.2,0,0,0,.61,2.7c-1.67,2.15-4,7.72-5.16,9.8-1.37,6.83-6.71,19.71-16.33,38.4l.82,4.34c-5.68,12.36-11.8,18.95-18.09,19.73-4.65.58-9.09-1.64-13.63-6.91,2.47-9.19,7-19.2,14.3-30.09,6.33-9.39,12.42-18.48,18.75-27.87l-.58-4.65c3.66-8.5,9.86-21.21,18.31-38.08l-.85-4.62q2.71-4.92,9-14.44l-.82-4.34c2.09-3.32,3.9-6.6,5.71-9.88q3.45-5.84,2.88-10.35a11.56,11.56,0,0,0-2.35-5.53c-.31-2.46,2.09-7.76,1.82-9.94a5.64,5.64,0,0,0-2.15-3.9c12.75-13.52,24-32.14,34.2-55.33,8.29-20.46,16.3-40.89,24.31-61.32,10.09-23.74,21.38-42.35,33.8-56.39l2.35-1.12c-.27,0,1.95,0,6.39,0a10.62,10.62,0,0,1,7.55,9.34c1.46,11.75-9,35-31.66,69.17-15.8,22.5-31.33,45-47.13,67.48-1.13,2.09-4,9.94-8.46,23.54-4.14,13.56-6.26,21-6.06,22.68.31,2.46,1.26,3.46,3.18,3.22,2.46-.31,12.37-9.87,30-28.44l.75,3.79A.51.51,0,0,0,351.94,404.92Zm-41.68-2.59-3.53,5.16c.65,3,1.64,4.23,3,4.06,2.46-.3,5.95-5.73,5.64-8.19C315.28,402.54,313.57,402.19,310.26,402.33Zm38.21-65.55c.48,3.83,1.57,5.92,3.58,6.5q6.93-4.61,14.37-18.44c3.86-6.87,7.42-14,11.29-20.84,4-5.5,10-13.73,17.48-24.66-.34-2.73-.68-5.46-1.33-8.44-1.26-3.45-3.11-4.88-5.81-4.27C374.14,282,361,305.53,348.47,336.78Z" style="fill:#f7c019"/><path d="M339,439.29c-2.32-3.05-3.62-6.77-4.2-11.42a58.21,58.21,0,0,0,3.15-5.94l-.27,0,.24-4.75c1.75-1.6,2.63-3.38,2.43-5,2.5-2.25,4.86-5.6,7.39-9.8,2.05-3.59,4.38-7.21,6.43-10.79l-1.09-4.31c1.88-2.73,5.4-10.11,10.37-21.55,4.1-9.4,8.28-16,12.28-19.57-1.88-1.71-3.62-2.33-5.26-2.13-2.19.28-7.8,4.3-10.26,4.61l-3-1.57-1.37,2.39-3-1.85c-2.5,2.25-7.76,4.57-16.13,6.45-7.28,1.73-12.24,4.29-14.29,7.88a10.54,10.54,0,0,0-5.37-.72,68.12,68.12,0,0,0-11,2.76c-5.34,1.77-8.17,3.51-8.82,5l.17-.85c-1.13-.14-2.63-1.06-4.51-2.78l.44-.88,24.48-10.82,2.73,1.88c.51-2.56,2.56-3.92,6.12-4.36a31.74,31.74,0,0,1,9.22.51l1.51-1.29c2.36-3.35,4.95-4.78,8.13-3.79.58-2,2.12-3,4.58-3.35a18.94,18.94,0,0,1,10.46,1.48c2.9-3.41,1.91-2.46,6.46-3.86q10.05-2.91,17.23-15.46c3.25-7.35,6.81-14.45,10.37-21.56,4.34-7.48,9.37-11.71,15.66-12.49a17.57,17.57,0,0,1,10,2.09c-4.31,7.75-9.78,19.54-16.46,35.08.38.79,1.54,1.2,2.91,1l.82-.1c2.8-2,7.41-2.87,13.8-2.83l3.46-1.26c4-1.61,12-3.72,24.23-6.07,9.74-2,16.64-4.56,20.5-7l2.19-.27a6.82,6.82,0,0,0,2.22,0c3.55-.44,5.33-1.77,5.91-3.79l6.53-1.09c-.37-.78-.17-1.36.89-1.77a8.44,8.44,0,0,1,3.59-.17,9.3,9.3,0,0,1,2.49,0l1.17-1.81,4.34-.82,3,1.85c2.09-3.32,4.62-5.3,7.63-5.67l2.69,1.61c2.29-1.68,9.68-4.81,12-6.49l2.73,1.89c.72-.93,3.32-2.36,8.37-4.1,4.52-1.67,6.57-3,6.16-4.09l1.46,2.87-.51,2.56-6.53,1.09c-4.75,4.2-12.1,7.61-22.32,10.27-11,3-18.69,5.93-22.79,8.66l-3-1.57q-8.76,6.49-23.78,9.62c-16.54,3.16-24.95,4.76-25.19,5.07a5.35,5.35,0,0,1-4.24,1.64c-1.4-.11-3.07-.18-4.75-.25-6.42,4.13-16.2,8.12-28.81,11.63-5.1,5.91-10.94,14.69-17,26-6.13,11-10.47,20.73-13.08,28.83,0,.27-4.34,9.7-13.07,28.83.2,1.64-.72,3.14-2.46,4.74l1,1.54-.52,4.79.59.2c7.38-.92,16.61-7.06,27.45-18.12,7.52-8.71,15.32-17.46,23.15-25.92l.13,1.09c.1.82-.89,4-3,9-3.87,2.42-12,10.65-24.66,25-9.95,11.51-20,17.75-29.57,18.94C345.49,444.59,342,443.08,339,439.29Z" style="fill:#f7c019"/><path d="M440.89,392.48C433.26,400.37,425.23,405,417.3,406c-3,5.09-4.34,9.7-3.77,14.35.62,4.92,3.28,8.47,7.75,11l1.92-2.46,2.46,1.92c3.93-1.88,9.33-5.33,16.81-9.87q4.57-3.48,16-18.64c7.18-9.22,12.31-14.86,15.66-16.94l.55-.07,2.73,4.1c-3.32,2.36-7,6.15-11.35,11.41-5.37,5.94-9,10-11,11.92l1.51-1.3A95.56,95.56,0,0,0,445,423.61l-.24.31a66,66,0,0,1-10.16,7.64c-4.89,3.11-8.17,5.74-10.12,7.92q-.76.51-5.74.72l-2.73,2.56-2.74-1.88-1.91,2.45q-18.09-4.83-19.87-19.18-.76-6.15,4.62-16.4.66-1.32,8.93-15.26c0-2.22,5.2-5.09,5.2-7.31,10.05-15.13,21.23-23.46,33.26-25,1.1-.13,3.32-.13,6.36-.23a25.65,25.65,0,0,0,6.32-.51c.37,3,1.47,5.09,3,6.29-2,0-2,2.18-1.68,4.37l2.46,1.92C453.64,379,447.28,385.85,440.89,392.48Zm3.47-25.7c-4.65.58-10.5,4.92-17,13.22-6.5,8-9.3,14.48-8.69,19.4.2,1.64,1.64,2,4.61,1.37,8.65-6.35,14-10.35,15.73-11.95C445.82,383,449.92,378,450.81,374c1.95,0,2.87-1.46,2.36-3.34A8.56,8.56,0,0,0,444.36,366.78Z" style="fill:#f7c019"/><path d="M545.28,379.23a22,22,0,0,0-5.71,7.64c-2.43,5-3.49,7.66-3.73,8-1.92.24-3.22,5.4-15.11,14.65q-8.78,6.51-9,7.79c-4.82,8.09-9.85,12.32-14.77,12.94-9.57,1.19-18.52-6-19.71-15.6-.64-5.19,1.93-11.34,7.36-19,4.55-5.84,8.86-11.37,13.14-17.18l-.82-6.56c-.24-1.91-1.19-2.9-2.87-3-3.62,2.11-11.66,11.16-24.38,27.18-.1-3,1.41-6.56,4-10.49l9.31-14.48c3.11-6.22,8.38-15.2,15.53-26.91a22.38,22.38,0,0,1,2.87-1.47c2.73-.34,6.42.31,10.8,2-1.78,1.33-2.5,2.25-2.43,2.8l2.49,2.19q-5.79,7-5.75,7.37c.55,4.38,6.42,13.64,7,18,.14,1.09-2.8,6.45-8.58,15.78s-8.42,17.14-7.67,23.16c.3,2.46,2.35,3.31,6.18,2.84,6.29-.78,19.62-14.1,39.49-39.61Z" style="fill:#f7c019"/><path d="M649.59,340.72A6.28,6.28,0,0,1,654,338c3-.38,9.43,2.16,12.44,1.78,4.1-.51,8.61-6.62,13.81-18.37l10.37-23.78L689.46,293c7.42-14,14.58-27.91,22-41.88,11.67-22.27,19.94-33.85,24.59-34.43,3-.37,9.19,2.47,9.6,5.75.14,1.09-2,4.13-1.85,5.23-2.77,6.73-7.56,15.09-14.68,24.86-8.31,11.31-13.4,19.44-15.87,24.18-5.37,10.39-11.19,21.66-17.75,33.58l.81,4.34c-2.18.27-4.34.82-3.79,3l2.73,1.88A227.66,227.66,0,0,1,673.94,358l.85,4.61q-1,2.21-8.93,15.27-5.55,9-4.63,16.4.72,5.75,5.64,5.13a11.2,11.2,0,0,0,8.48-5.5l3.28-.41c2.49,0,3.65-1.84,2.46-4.74,7.35-3.41,12.65-7.68,15.62-12.77,3.66-6.29,6.5-10.25,8.79-11.92,2.7-.61,3.9-2.15,3.25-5.12,1.68.07,3.39-1.81,5.2-5.09l3.42.69q-2.73,8.24-23,29.5c-13.71,14.75-23,22.57-28.2,23.22a76.16,76.16,0,0,1-13.5.84c-4.78-.51-8.16-3.15-10.42-7.87-2-4.75-3.65-7-4.47-6.93L636,394.32c-7.35,10.08-14.43,15.68-21.81,16.59a16.66,16.66,0,0,1-6.7-.27l1.65-2.43c-.35-.51-1.74-2.84-3.93-7-1.81-3.38-3.38-4.85-5-4.65q1.61-17.26,16.63-33.71a126.17,126.17,0,0,1,30.05-24Zm3.51,3.73c-9.29,1.15-16.85,7.37-22.36,18.88-3.52,9.6-7.36,19-11.16,28.59a10.41,10.41,0,0,0,3.55,6.22l4.65-.58a77.43,77.43,0,0,1,9-10c4.44-4.44,7.62-7.89,9.26-10.31l4.38-.55c8.1-8.5,11.8-16.73,10.74-25.21C660.55,346.3,657.75,343.87,653.1,344.45Z" style="fill:#f7c019"/><path d="M810.38,345.72c.37,3-3.87,9.09-12.69,18.51-7.83,8.47-13.82,13.93-17.68,16.36-2,0-2,2.18-1.68,4.37-2.46.3-7.14,5.05-9.6,5.36l-.89-.45c-8,.17-13.36-2.5-15.51-8.62l-4.41.27A102.57,102.57,0,0,0,736.3,397.4l-4.41.27c-1.1,2.36-2.6,3.66-4,3.83-1.91.23-5.7-1.24-6.83-1.38l-2.19,2.5a21,21,0,0,1-15.5-17.51c-.31-2.46.35-6.15,2.23-11.1,1.2-3.76,2.4-7.52,3.87-11.31,1.54-5.46,6-11.58,13.27-18.3a116.32,116.32,0,0,1,18.8-14l6.63-.27c3.39-4,7-6.14,10.56-6.59a9.93,9.93,0,0,1,6.87,1.65c.37,3,5.36,7.38,8.64,7,.55-.06,2.26-1.94,5.16-5.36,2.88-3.68,5.13-5.63,7.05-5.87,2.73-.34,4.4,1.95,5,7.15.47,3.82-1.34,9.32-5.48,16.22-5.78,9.33-8.72,14.69-9.13,15.85l.57,4.65a89.75,89.75,0,0,0-8.69,12.74,6.8,6.8,0,0,0,4.92,1.61c3-.38,12.35-10.14,28.56-29.37a34.7,34.7,0,0,1,7.07-5.6Zm-54-12.71c-5.19.64-10.63,3.82-16.27,9.79s-9.13,11.41-10.67,16.87l.23,1.92c.38,3-.27,6.69-1.88,11.61s-2.26,8.61-1.92,11.35c.44,3.55,2.28,5,5.29,4.61s9.09-5,17.95-14.17a204.18,204.18,0,0,0,16-18.64l-.58-4.65c2.06-1.36,4.58-3.34,4.28-5.8-.17-1.37-1.26-5.68-1.5-7.59C764,334.28,760.43,332.5,756.33,333Z" style="fill:#f7c019"/><path d="M879.06,337.74a22.15,22.15,0,0,0-5.71,7.65c-2.43,5-3.49,7.65-3.73,8-1.92.24-3.22,5.39-15.11,14.65q-8.78,6.5-9,7.78c-4.82,8.1-9.85,12.33-14.77,12.94-9.57,1.19-18.52-6-19.71-15.59-.64-5.2,1.92-11.35,7.36-19,4.55-5.84,8.86-11.38,13.14-17.18l-.82-6.56c-.24-1.92-1.19-2.91-2.87-3-3.62,2.12-11.66,11.17-24.38,27.18-.1-3,1.41-6.56,4-10.48l9.31-14.48c3.11-6.22,8.38-15.2,15.53-26.92a22.38,22.38,0,0,1,2.87-1.47c2.73-.34,6.42.32,10.8,2-1.78,1.34-2.5,2.26-2.43,2.8l2.49,2.19q-5.79,7-5.75,7.38c.55,4.37,6.42,13.64,7,18,.14,1.09-2.8,6.46-8.59,15.78s-8.41,17.15-7.67,23.16c.31,2.46,2.36,3.32,6.19,2.84,6.29-.78,19.62-14.1,39.49-39.61Z" style="fill:#f7c019"/><path d="M978.84,182.37c-3.73,8-6.16,13-7.32,14.79a21.25,21.25,0,0,0-1.1,6.8c-6.74,15-16.29,32-29,50.52L908.2,301.92a45.37,45.37,0,0,1-3,9.25l3,4.07c12.27-10.68,24.27-16.89,36-18.36a47.49,47.49,0,0,1,6.09-.2l-1.92,2.46a10.55,10.55,0,0,1,2.66,5.78c.55,4.37-1.37,9.05-6,14.07-4,3.83-7.93,7.65-11.93,11.2l-2.46-1.91a89.56,89.56,0,0,1-8.72,5.8c-3.86,2.42-5.51,4.85-5.2,7.31a12,12,0,0,0,.55,2.15l2.45,1.92a10.26,10.26,0,0,0-1.57,7.41c.27,2.19,1.63,6.46,1.87,8.37a6.34,6.34,0,0,0,5.87,2.6c3-.37,6-2.69,9.1-7.23l2.87.75,4-1.06c12.69-11.84,21.89-22.7,27.84-32.88l3.55,1.78c-2.22,2.22-3.66,4.06-4.07,5.22a57.88,57.88,0,0,1-2.33,5.84c-2.42.58-5.36,3.72-8.48,9.94s-5.71,9.87-7.49,11.2c-5.37,3.72-10.49,7.14-15.86,10.86-6.46,3.85-12.31,6-18,6.68l-2.73-1.88c-1.16,1.81-3.25,2.9-6.29,3-3.38-2.63-5.39-5.43-5.73-8.17-.51-4.1.83-13.42,0-17.49l-.34-2.74s-1-1.26-2.69-3.82c-1.06-1.82-2.29-2.77-3.38-2.64a9.28,9.28,0,0,1-1.58.75c-3.11,4-5.78,9.33-8.55,16.06-2.33,5.84-4.38,11.65-6.47,17.18.27,2.19.85,4.61,3,4.07-2.22,2.22-4.2,4.13-6.46,6.08-2.77,2.28-5.09,3.68-7.55,4-4.38.54-6.9-1.92-7.55-7.12a19.76,19.76,0,0,1,1.58-9.63c1.27-3.21,2.57-6.15,3.83-9.36-.17-1.37,3.8-3,3.56-4.88-.2-1.64-1.67-2.29-4.65-1.65,3-5.09,5.92-10.45,8.87-15.81,3.69-6,7.55-10.66,11.35-13.63l-.82-4.34a32.87,32.87,0,0,0,8.62-13.28c2.78-6.73,5.24-11.48,7.46-13.7l-.82-4.34c-.23-1.91,1.07-4.85,4.18-8.85,2.15-2.76,4.58-5.56,6.74-8.33l-.55-4.37q1.91-4.82,6.57-14.14c3.59-4.61,7.63-10.11,11.6-16.16l-2-4.48.45-.88c1.81-3.28,4.92-7.28,9.27-12.54a99.37,99.37,0,0,0,9.54-12.56c4.28-8,8.28-16,12.56-24.05,5.2-9.53,10.39-16.84,16.1-22.27l2.46,1.92,1.92-2.46c3.48,1.23,5.4,3.21,5.7,5.67C984.45,169.46,982.57,174.41,978.84,182.37ZM934.33,308.94c-.37-3-1.81-3.38-5.09-3-5.37,3.72-8.75,5.53-10.39,5.74-12.27,8.46-18.22,14.2-18.12,17.24,3,3.79,5.7,5.68,8.43,5.34q7.38-.93,14.77-8.5Q926.5,323,934.7,312Z" style="fill:#f7c019"/></g></g></svg>
