<svg xmlns="http://www.w3.org/2000/svg" viewBox="0 0 106.8 61.69"><title>Asset 6</title><g id="Layer_2" data-name="Layer 2"><g id="logo"><path d="M72.29,27.26a8.45,8.45,0,1,1,8.44-8.45,8.44,8.44,0,0,1-8.44,8.45M45.11,10.37a8.45,8.45,0,1,1-8.44,8.44,8.44,8.44,0,0,1,8.44-8.44m46,8.44a18.81,18.81,0,0,0-32.4-13A18.81,18.81,0,0,0,28.46,27.57H15.19a.84.84,0,0,1-.71-1.29l.17-.24c.94-1.29,8.74-10.47,11.34-13.8l.71-1A6.73,6.73,0,0,0,28,7.3,6.54,6.54,0,0,0,21.4.55L20.25.48l-19,0V10.52H12.75a.84.84,0,0,1,.84.84.81.81,0,0,1-.14.46l-.21.27c-3.4,4.43-10.83,13.38-11.36,14A14,14,0,0,0,1,27.42a6.43,6.43,0,0,0-1,3.4c0,3.77,3.46,6.33,6.55,6.67,1.07.12,1.9.13,1.9.13H72.78v0A18.79,18.79,0,0,0,91.1,18.81" style="fill:#0f6b57"/><text transform="translate(22.25 48.23) rotate(-7.09)" style="font-size:28.71733283996582px;fill:#f7c019;font-family:NationalArchive, National Archive">after dark</text></g></g></svg>
